<svg xmlns="http://www.w3.org/2000/svg" viewBox="0 0 512 512">
  <defs>
    <linearGradient id="bg" x1="0" y1="0" x2="1" y2="1">
      <stop offset="0%" stop-color="#16191d"/>
      <stop offset="100%" stop-color="#0b0d10"/>
    </linearGradient>
    <linearGradient id="accent" x1="0" y1="0" x2="1" y2="1">
      <stop offset="0%" stop-color="#ff7f45"/>
      <stop offset="100%" stop-color="#ff6a2b"/>
    </linearGradient>
  </defs>
  <rect width="512" height="512" rx="116" fill="url(#bg)"/>
  <rect x="44" y="44" width="424" height="424" rx="92" fill="none" stroke="#262b31" stroke-width="12"/>
  <g fill="none" stroke="#2f3b48" stroke-width="8" opacity="0.8">
    <path d="M104 160H408"/>
    <path d="M104 256H408"/>
    <path d="M104 352H408"/>
    <path d="M160 104V408"/>
    <path d="M256 104V408"/>
    <path d="M352 104V408"/>
  </g>
  <g transform="translate(106 112)">
    <rect x="0" y="126" width="110" height="44" rx="18" transform="rotate(-45 55 148)" fill="url(#accent)"/>
    <rect x="66" y="84" width="128" height="54" rx="20" transform="rotate(-45 130 111)" fill="#d7dde5"/>
    <path d="M180 56l44 44c9 9 9 23 0 32l-8 8-76-76 8-8c9-9 23-9 32 0Z" fill="#aab2bc"/>
    <path d="M212 44l32 32-18 18-32-32z" fill="#7e8792"/>
    <path d="M112 68l76 76" stroke="#5f6873" stroke-width="14" stroke-linecap="round"/>
  </g>
</svg>
